<svg xmlns="http://www.w3.org/2000/svg" version="1" viewBox="0 0 3000 2790"><path fill="#2a2a2a" d="M0 1395V0h3000v2790H0V1395zm2910 0V90H90v2610h2820V1395z"/><g fill="#3bcccf"><path d="M462 2542c-12-8-31-111-132-722-49-295-48-288-36-300 15-15 161-13 174 3 5 6 13 35 16 62 16 125 16 145 6 145-6 0-4 9 4 23 9 12 18 45 21 72 3 28 10 74 15 104 6 30 10 70 10 88 0 19 4 32 9 28 6-3 9-13 9-23-1-9 5-48 12-87 8-38 13-73 12-78-1-4 3-28 9-55 6-26 12-60 14-77 9-92 30-191 42-204 18-17 142-8 155 11 5 7 7 28 5 46-1 17 0 32 3 32 6 0 14 56 14 108 0 17 2 32 6 32s7 6 8 13l21 145 22 145c1 10 29-175 41-273 2-14 6-27 10-30 4-4 10-46 12-95 2-50 9-102 15-117 10-27 13-28 90-28 68 0 82 3 90 19 6 10 9 20 7 22s-25 130-50 284l-62 370-24 145c-22 138-30 173-41 186-15 18-142 19-157 1-11-13-41-159-66-327l-20-130c-3-14-5-36-5-49-2-48-10-13-41 179l-35 210-11 63c-4 30-13 51-25 57-21 12-129 13-147 2zm118-177c0-3-2-5-5-5s-5 2-5 5 2 5 5 5 5-2 5-5zm320-90c0-3-2-5-5-5s-5 2-5 5 2 5 5 5 5-2 5-5zm-250-190c0-3-2-5-5-5s-5 2-5 5 2 5 5 5 5-2 5-5zm20-140c0-3-2-5-5-5s-5 2-5 5 2 5 5 5 5-2 5-5zm-250-10c0-3-2-5-5-5s-5 2-5 5 2 5 5 5 5-2 5-5zm70 0c0-3-2-5-5-5s-5 2-5 5 2 5 5 5 5-2 5-5zm280-20c0-3-2-5-5-5s-5 2-5 5 2 5 5 5 5-2 5-5zm-370-60c0-3-2-5-5-5s-5 2-5 5 2 5 5 5 5-2 5-5zm20-10c0-3-2-5-5-5s-5 2-5 5 2 5 5 5 5-2 5-5zm327-2c-4-3-10-3-14 0-3 4 0 7 7 7s10-3 7-7zm223 2c0-3-2-5-5-5s-5 2-5 5 2 5 5 5 5-2 5-5zm-190-10c0-3-2-5-5-5s-5 2-5 5 2 5 5 5 5-2 5-5zm167-2c-4-3-10-3-14 0-3 4 0 7 7 7s10-3 7-7zm-467-8c0-3-2-5-5-5s-5 2-5 5 2 5 5 5 5-2 5-5zm321-32c13-16 12-17-3-4-10 7-18 15-18 17 0 8 8 3 21-13zm26 0c-4-3-7 0-7 7s3 10 7 7c3-4 3-10 0-14zm-327 2c0-3-2-5-5-5s-5 2-5 5 2 5 5 5 5-2 5-5zm-33-12c-4-3-10-3-14 0-3 4 0 7 7 7s10-3 7-7zm-47-8c0-3-2-5-5-5s-5 2-5 5 2 5 5 5 5-2 5-5zm17-22c-4-3-7 0-7 7s3 10 7 7c3-4 3-10 0-14zm43 12c0-3-2-5-5-5s-5 2-5 5 2 5 5 5 5-2 5-5zm250 0c0-3-2-5-5-5s-5 2-5 5 2 5 5 5 5-2 5-5zm80 0c0-3-2-5-5-5s-5 2-5 5 2 5 5 5 5-2 5-5zm160 0c0-3-2-5-5-5s-5 2-5 5 2 5 5 5 5-2 5-5zm-180-10c0-3-2-5-5-5s-5 2-5 5 2 5 5 5 5-2 5-5zm-80-10c0-3-2-5-5-5s-5 2-5 5 2 5 5 5 5-2 5-5zm-315-15c-3-5-11-10-16-10-6 0-7 5-4 10 3 6 11 10 16 10 6 0 7-4 4-10zm385-5c0-3-2-5-5-5s-5 2-5 5 2 5 5 5 5-2 5-5zm-30-10c0-3-2-5-5-5s-5 2-5 5 2 5 5 5 5-2 5-5zm230-10c0-3-2-5-5-5s-5 2-5 5 2 5 5 5 5-2 5-5zm-535-15c3-5 4-10 1-10s-8 5-11 10c-3 6-4 10-1 10s8-4 11-10zm235 5c0-3-2-5-5-5s-5 2-5 5 2 5 5 5 5-2 5-5zm68-14c3-8-1-12-9-9-7 2-15 10-17 17-3 8 1 12 9 9 7-2 15-10 17-17zm242-11c0-5-8-10-17-10-15 0-16 2-3 10 19 12 20 12 20 0zm47 3c-4-3-10-3-14 0-3 4 0 7 7 7s10-3 7-7zm-682-23c3-5 2-10-4-10-5 0-13 5-16 10-3 6-2 10 4 10 5 0 13-4 16-10zm415 5c0-3-2-5-5-5s-5 2-5 5 2 5 5 5 5-2 5-5zm287-2c-4-3-10-3-14 0-3 4 0 7 7 7s10-3 7-7zm-620-10c-4-3-10-3-14 0-3 4 0 7 7 7s10-3 7-7zm33 2c0-3-2-5-5-5s-5 2-5 5 2 5 5 5 5-2 5-5zm280 0c0-3-2-5-5-5s-5 2-5 5 2 5 5 5 5-2 5-5zm-73-22c-4-3-7 0-7 7s3 10 7 7c3-4 3-10 0-14zm313 12c0-3-2-5-5-5s-5 2-5 5 2 5 5 5 5-2 5-5zm70-10c0-3-2-5-5-5s-5 2-5 5 2 5 5 5 5-2 5-5zm-290-9c0-3-4-8-10-11-5-3-10-1-10 4 0 6 5 11 10 11 6 0 10-2 10-4zm240-1c0-3-2-5-5-5s-5 2-5 5 2 5 5 5 5-2 5-5zm-593-31c-3-3-12-4-19-1-8 3-5 6 6 6 11 1 17-2 13-5zM1211 2537c-13-17-13-983 1-1009 7-15 22-18 86-18 42 0 83 4 91 9 11 7 13 96 14 497 0 269-3 499-7 512-7 20-13 22-90 22-57 0-87-4-95-13zm89-192c0-3-2-5-5-5s-5 2-5 5 2 5 5 5 5-2 5-5zm10-170c0-3-2-5-5-5s-5 2-5 5 2 5 5 5 5-2 5-5zm-20-110c0-3-2-5-5-5s-5 2-5 5 2 5 5 5 5-2 5-5zm-40-45c0-5-5-10-11-10-5 0-7 5-4 10 3 6 8 10 11 10 2 0 4-4 4-10zm50-45c0-3-2-5-5-5s-5 2-5 5 2 5 5 5 5-2 5-5zm20-120c0-3-2-5-5-5s-5 2-5 5 2 5 5 5 5-2 5-5zm-43-32c-4-3-7 0-7 7s3 10 7 7c3-4 3-10 0-14zm30-10c-4-3-10-3-14 0-3 4 0 7 7 7s10-3 7-7zm-3-39c3-8 2-12-4-9s-10 10-10 16c0 14 7 11 14-7zm-4-49c0-3-2-5-5-5s-5 2-5 5 2 5 5 5 5-2 5-5zm50-10c0-3-2-5-5-5s-5 2-5 5 2 5 5 5 5-2 5-5zm-50-10c0-3-2-5-5-5s-5 2-5 5 2 5 5 5 5-2 5-5zm30-10c0-3-2-5-5-5s-5 2-5 5 2 5 5 5 5-2 5-5zm30-20c0-3-2-5-5-5s-5 2-5 5 2 5 5 5 5-2 5-5zm-90-10c0-3-2-5-5-5s-5 2-5 5 2 5 5 5 5-2 5-5zM1521 2531c-12-22-12-981 0-1003 7-14 24-17 94-17 50 0 87 4 91 11 4 6 7 158 8 339 1 257-2 329-11 329-7 0-13 5-13 11 0 5 5 7 10 4 11-7 14 16 11 97-3 73-4 73 157 65 40-1 77 0 83 4 14 8 22 140 10 159-9 12-45 15-221 16-183 1-212-1-219-15zm119-75c0-3-5-8-12-12s-8-3-4 4c7 12 16 16 16 8zm140-1c0-3-2-5-5-5s-5 2-5 5 2 5 5 5 5-2 5-5zm50 0c0-3-2-5-5-5s-5 2-5 5 2 5 5 5 5-2 5-5zm-140-10c0-3-2-5-5-5s-5 2-5 5 2 5 5 5 5-2 5-5zm30 0c0-3-2-5-5-5s-5 2-5 5 2 5 5 5 5-2 5-5zm140-10c0-3-2-5-5-5s-5 2-5 5 2 5 5 5 5-2 5-5zm-227-25c-3-11-7-20-9-20s-4 9-4 20 4 20 9 20 7-9 4-20zm307 16c0-3-5-8-12-12s-8-3-4 4c7 12 16 16 16 8zm-253-23c-4-3-10-3-14 0-3 4 0 7 7 7s10-3 7-7zm-17-23c0-5-10-14-22-20-21-10-21-10-6 3 10 8 15 17 11 20-3 4-1 7 5 7 7 0 12-4 12-10zm-10-104c0-3-5-8-12-12s-8-3-4 4c7 12 16 16 16 8zm-37-40c4-10 1-13-8-9-8 3-12 9-9 14 7 12 11 11 17-5zm27-1c0-3-2-5-5-5s-5 2-5 5 2 5 5 5 5-2 5-5zm20-20c0-3-2-5-5-5s-5 2-5 5 2 5 5 5 5-2 5-5zm-50-30c0-3-2-5-5-5s-5 2-5 5 2 5 5 5 5-2 5-5zm60 0c0-3-2-5-5-5s-5 2-5 5 2 5 5 5 5-2 5-5zm-80-10c0-3-2-5-5-5s-5 2-5 5 2 5 5 5 5-2 5-5zm50-40c0-3-2-5-5-5s-5 2-5 5 2 5 5 5 5-2 5-5zm-40-19c0-3-4-8-10-11-5-3-10-1-10 4 0 6 5 11 10 11 6 0 10-2 10-4zm44-21c-4-8-9-15-13-15s-8 7-8 15 6 15 13 15c8 0 11-6 8-15zm-74 0c0-3-2-5-5-5s-5 2-5 5 2 5 5 5 5-2 5-5zm80-40c0-3-2-5-5-5s-5 2-5 5 2 5 5 5 5-2 5-5zm-23-22c-4-3-7 0-7 7s3 10 7 7c3-4 3-10 0-14zm-60-10c-4-3-7 0-7 7s3 10 7 7c3-4 3-10 0-14zm73-8c0-3-2-5-5-5s-5 2-5 5 2 5 5 5 5-2 5-5zm-60-10c0-3-2-5-5-5s-5 2-5 5 2 5 5 5 5-2 5-5zm7-67c-3-8-6-5-6 6-1 11 2 17 5 13 3-3 4-12 1-19zm30-35c-4-3-7 0-7 7s3 10 7 7c3-4 3-10 0-14zm3-88c0-3-2-5-5-5s-5 2-5 5 2 5 5 5 5-2 5-5zm-20-20c0-3-2-5-5-5s-5 2-5 5 2 5 5 5 5-2 5-5zm10-20c0-3-2-5-5-5s-5 2-5 5 2 5 5 5 5-2 5-5zm-10-50c0-3-2-5-5-5s-5 2-5 5 2 5 5 5 5-2 5-5zm30-30c0-3-2-5-5-5s-5 2-5 5 2 5 5 5 5-2 5-5zM2048 2539c-9-6-12-129-12-509-1-424 1-502 13-510 8-4 50-9 93-9 75 0 79 1 88 24 15 40 8 655-7 655-7 0-13 5-13 11s7 8 16 5c14-5 15 4 10 74-7 99-13 95 149 87 97-5 102-2 104 80 0 37-3 75-9 83-8 12-44 15-214 16-113 0-211-3-218-7zm162-74c0-3-2-5-5-5s-5 2-5 5 2 5 5 5 5-2 5-5zm260 0c0-3-2-5-5-5s-5 2-5 5 2 5 5 5 5-2 5-5zm-310-10c0-3-2-5-5-5s-5 2-5 5 2 5 5 5 5-2 5-5zm140 0c0-3-2-5-5-5s-5 2-5 5 2 5 5 5 5-2 5-5zm-90-10c0-3-2-5-5-5s-5 2-5 5 2 5 5 5 5-2 5-5zm-90-10c0-3-2-5-5-5s-5 2-5 5 2 5 5 5 5-2 5-5zm33-20c-7-21-13-19-13 6 0 11 4 18 10 14 5-3 7-12 3-20zm227 20c0-3-2-5-5-5s-5 2-5 5 2 5 5 5 5-2 5-5zm-173-32c-4-3-10-3-14 0-3 4 0 7 7 7s10-3 7-7zm-14-20c7-7-22-32-38-32-5 0-2 4 8 10 9 6 15 14 12 20-7 10 8 13 18 2zm-56-10c-4-3-10-3-14 0-3 4 0 7 7 7s10-3 7-7zm8-133c-3-5-12-10-18-10-7 0-6 4 3 10 19 12 23 12 15 0zm25-4c0-3-5-8-12-12s-8-3-4 4c7 12 16 16 16 8zm-10-31c0-3-2-5-5-5s-5 2-5 5 2 5 5 5 5-2 5-5zm-20-20c0-3-2-5-5-5s-5 2-5 5 2 5 5 5 5-2 5-5zm57-12c-4-3-7 0-7 7s3 10 7 7c3-4 3-10 0-14zm-77 2c0-3-2-5-5-5s-5 2-5 5 2 5 5 5 5-2 5-5zm50-40c0-3-2-5-5-5s-5 2-5 5 2 5 5 5 5-2 5-5zm-40-19c0-3-5-8-12-12s-8-3-4 4c7 12 16 16 16 8zm44-21c-6-16-24-21-24-7 0 11 11 22 21 22 5 0 6-7 3-15zm-74 0c0-3-2-5-5-5s-5 2-5 5 2 5 5 5 5-2 5-5zm30-20c0-3-2-5-5-5s-5 2-5 5 2 5 5 5 5-2 5-5zm27-42c-4-3-7 0-7 7s3 10 7 7c3-4 3-10 0-14zm-57-8c0-3-2-5-5-5s-5 2-5 5 2 5 5 5 5-2 5-5zm70-10c0-3-2-5-5-5s-5 2-5 5 2 5 5 5 5-2 5-5zm-53-82c-4-3-7 0-7 7s3 10 7 7c3-4 3-10 0-14zm30-30c-4-3-7 0-7 7s3 10 7 7c3-4 3-10 0-14zm-7-58c0-3-2-5-5-5s-5 2-5 5 2 5 5 5 5-2 5-5zm10-30c0-3-2-5-5-5s-5 2-5 5 2 5 5 5 5-2 5-5zm-3-42c-4-3-10-3-14 0-3 4 0 7 7 7s10-3 7-7zm-7-48c0-3-2-5-5-5s-5 2-5 5 2 5 5 5 5-2 5-5zm20-10c0-3-2-5-5-5s-5 2-5 5 2 5 5 5 5-2 5-5zm-40-20c0-3-2-5-5-5s-5 2-5 5 2 5 5 5 5-2 5-5zm40 0c0-3-2-5-5-5s-5 2-5 5 2 5 5 5 5-2 5-5zM2565 2540c-6-9-7-580-2-895l2-130 83-3c50-2 89 2 97 8 11 9 13 110 13 503 0 295-3 498-9 509-8 15-23 18-94 18-46 0-87-4-90-10zm85-195c0-3-2-5-5-5s-5 2-5 5 2 5 5 5 5-2 5-5zm30-140c0-3-2-5-5-5s-5 2-5 5 2 5 5 5 5-2 5-5zm-40-140c0-3-2-5-5-5s-5 2-5 5 2 5 5 5 5-2 5-5zm-30-40c0-3-2-5-5-5s-5 2-5 5 2 5 5 5 5-2 5-5zm-20-10c0-3-2-5-5-5s-5 2-5 5 2 5 5 5 5-2 5-5zm120-30c0-3-2-5-5-5s-5 2-5 5 2 5 5 5 5-2 5-5zm-60-10c0-3-2-5-5-5s-5 2-5 5 2 5 5 5 5-2 5-5zm-10-80c0-3-2-5-5-5s-5 2-5 5 2 5 5 5 5-2 5-5zm20-10c0-3-2-5-5-5s-5 2-5 5 2 5 5 5 5-2 5-5zm37-22c-4-3-7 0-7 7s3 10 7 7c3-4 3-10 0-14zm-70-40c-4-3-7 0-7 7s3 10 7 7c3-4 3-10 0-14zm-37-8c0-3-2-5-5-5s-5 2-5 5 2 5 5 5 5-2 5-5zm77-2c-4-3-10-3-14 0-3 4 0 7 7 7s10-3 7-7zm-37-28c0-3-2-5-5-5s-5 2-5 5 2 5 5 5 5-2 5-5zm25-5c3-5 1-10-4-10-6 0-11 5-11 10 0 6 2 10 4 10 3 0 8-4 11-10zm25-15c0-3-2-5-5-5s-5 2-5 5 2 5 5 5 5-2 5-5zm-30-40c0-3-2-5-5-5s-5 2-5 5 2 5 5 5 5-2 5-5zm60-10c0-3-2-5-5-5s-5 2-5 5 2 5 5 5 5-2 5-5zm-60-10c0-3-2-5-5-5s-5 2-5 5 2 5 5 5 5-2 5-5zm40-10c0-3-2-5-5-5s-5 2-5 5 2 5 5 5 5-2 5-5zm-40-20c0-3-2-5-5-5s-5 2-5 5 2 5 5 5 5-2 5-5zm60 0c0-3-2-5-5-5s-5 2-5 5 2 5 5 5 5-2 5-5zm-90-10c0-3-2-5-5-5s-5 2-5 5 2 5 5 5 5-2 5-5zm0-100c0-3-2-5-5-5s-5 2-5 5 2 5 5 5 5-2 5-5zM307 1322c-20-4-19 28-16-457l1-387c-1-28 4-48 10-48 7 0 7-4-1-13-12-16-18-98-7-115 5-8 57-12 169-12 141 0 168 3 207 21 59 26 86 53 118 114l27 50v335c0 303-2 339-18 374-21 44-93 116-117 116-9 0-21 5-27 11-11 11-301 20-346 11zm270-183c23-7 32-18 37-41 11-54 7-553-5-586-11-32-19-37-81-46l-38-6v55c0 30-4 55-8 55-11 0-12 32-1 46 5 6 8 58 8 115v262l1 157h29c15 0 42-5 58-11zm-157-74c0-3-2-5-5-5s-5 2-5 5 2 5 5 5 5-2 5-5zm250-80c0-3-2-5-5-5s-5 2-5 5 2 5 5 5 5-2 5-5zM400 815c0-3-2-5-5-5s-5 2-5 5 2 5 5 5 5-2 5-5zm40 0c0-3-2-5-5-5s-5 2-5 5 2 5 5 5 5-2 5-5zm10-45c0-5-7-7-15-4-8 4-12 10-9 15 6 11 24 2 24-11zm-43 3c-4-3-10-3-14 0-3 4 0 7 7 7s10-3 7-7zm-10-30c-4-3-10-3-14 0-3 4 0 7 7 7s10-3 7-7zm33 2c0-3-2-5-5-5s-5 2-5 5 2 5 5 5 5-2 5-5zm-70-9c0-2-8-10-17-17-16-13-17-12-4 4s21 21 21 13zm70-21c10-13 9-15-11-14-13 0-18 3-11 6 6 2 10 9 6 14-9 15 2 10 16-6zm-80-20c0-3-2-5-5-5s-5 2-5 5 2 5 5 5 5-2 5-5zm35-5c3-5 4-10 1-10s-8 5-11 10c-3 6-4 10-1 10s8-4 11-10zm-45-35c0-3-2-5-5-5s-5 2-5 5 2 5 5 5 5-2 5-5zm70-20c0-11-29-11-33-1s1 12 14 9c10-3 19-7 19-8zm30 10c0-3-2-5-5-5s-5 2-5 5 2 5 5 5 5-2 5-5zm-83-67c-3-8-6-5-6 6-1 11 2 17 5 13 3-3 4-12 1-19zm93 7c0-3-2-5-5-5s-5 2-5 5 2 5 5 5 5-2 5-5zm-30-10c0-3-2-5-5-5s-5 2-5 5 2 5 5 5 5-2 5-5zm-30-20c0-3-2-5-5-5s-5 2-5 5 2 5 5 5 5-2 5-5zm80 0c0-3-2-5-5-5s-5 2-5 5 2 5 5 5 5-2 5-5zm-100-10c0-3-2-5-5-5s-5 2-5 5 2 5 5 5 5-2 5-5zm-40-30c0-3-2-5-5-5s-5 2-5 5 2 5 5 5 5-2 5-5zm40-10c0-3-2-5-5-5s-5 2-5 5 2 5 5 5 5-2 5-5zm70-10c0-3-2-5-5-5s-5 2-5 5 2 5 5 5 5-2 5-5zm-63-47c-3-8-6-5-6 6-1 11 2 17 5 13 3-3 4-12 1-19zm323 17c0-3-2-5-5-5s-5 2-5 5 2 5 5 5 5-2 5-5zm-245-25c3-5 4-10 1-10s-8 5-11 10c-3 6-4 10-1 10s8-4 11-10zm-42-29c3-14 1-18-9-14-15 6-18 16-7 26 9 10 10 9 16-12zm307 14c0-3-2-5-5-5s-5 2-5 5 2 5 5 5 5-2 5-5zm-370-10c0-3-2-5-5-5s-5 2-5 5 2 5 5 5 5-2 5-5zm130 0c0-3-2-5-5-5s-5 2-5 5 2 5 5 5 5-2 5-5zm20-10c0-3-2-5-5-5s-5 2-5 5 2 5 5 5 5-2 5-5zm40-10c0-3-2-5-5-5s-5 2-5 5 2 5 5 5 5-2 5-5zm-160-10c0-3-2-5-5-5s-5 2-5 5 2 5 5 5 5-2 5-5zm260-10c0-3-2-5-5-5s-5 2-5 5 2 5 5 5 5-2 5-5zm-83-22c-4-3-7 0-7 7s3 10 7 7c3-4 3-10 0-14zm-97-8c0-3-2-5-5-5s-5 2-5 5 2 5 5 5 5-2 5-5zm30 0c0-3-2-5-5-5s-5 2-5 5 2 5 5 5 5-2 5-5zM915 1310c-9-14-9-995 0-1009 4-8 68-11 206-11 109 1 203-1 209-5 5-3 10-1 10 4 0 6 6 10 13 8 18-3 17 155-2 161-8 3-11 1-9-4 3-5 2-18-3-29-7-17-8-17-8 8-1 28-15 37-24 15-3-7-6-4-7 7-1 20-1 20-15 1-13-17-15-18-15-3 0 26-17 20-24-8-6-24-26-36-26-15 0 6 5 10 11 10s9 5 7 12c-3 7-26 11-61 10-31 0-60 4-63 10-6 10-7 46-5 170l1 57 93 3 92 3 3 78c3 91 1 93-112 95-38 1-70 3-72 4-2 3-7 203-5 240 1 15 16 18 134 20l132 3v170l-227 3c-151 1-229-1-233-8zm335-25c0-3-2-5-5-5s-5 2-5 5 2 5 5 5 5-2 5-5zm-190-460c0-3-2-5-5-5s-5 2-5 5 2 5 5 5 5-2 5-5zm80-80c0-3-2-5-5-5s-5 2-5 5 2 5 5 5 5-2 5-5zm-90-220c0-3-2-5-5-5s-5 2-5 5 2 5 5 5 5-2 5-5zm-30-20c0-3-2-5-5-5s-5 2-5 5 2 5 5 5 5-2 5-5zm50 0c0-3-2-5-5-5s-5 2-5 5 2 5 5 5 5-2 5-5zm10-40c0-3-2-5-5-5s-5 2-5 5 2 5 5 5 5-2 5-5zm-50-19c0-3-5-8-12-12s-8-3-4 4c7 12 16 16 16 8zm290-21c0-3-2-5-5-5s-5 2-5 5 2 5 5 5 5-2 5-5zm-333-12c-4-3-10-3-14 0-3 4 0 7 7 7s10-3 7-7zm173-8c0-3-2-5-5-5s-5 2-5 5 2 5 5 5 5-2 5-5zm30 0c0-3-2-5-5-5s-5 2-5 5 2 5 5 5 5-2 5-5zm50-10c0-3-2-5-5-5s-5 2-5 5 2 5 5 5 5-2 5-5zm20 0c0-3-2-5-5-5s-5 2-5 5 2 5 5 5 5-2 5-5zm-280-20c0-3-2-5-5-5s-5 2-5 5 2 5 5 5 5-2 5-5zm180 0c0-3-2-5-5-5s-5 2-5 5 2 5 5 5 5-2 5-5zm37-2c-4-3-10-3-14 0-3 4 0 7 7 7s10-3 7-7zm43 3c0-3-4-8-10-11-5-3-10-1-10 4 0 6 5 11 10 11 6 0 10-2 10-4zm50-21c0-3-2-5-5-5s-5 2-5 5 2 5 5 5 5-2 5-5zm-30-10c0-3-2-5-5-5s-5 2-5 5 2 5 5 5 5-2 5-5zM1472 1312c-18-12-15-692 2-692 6 0 5-4-3-9-9-6-11-15-6-27 11-27 13-54 3-54s-10-211 0-227c6-9 54-13 170-14 152-1 165 1 215 24 58 26 96 69 116 127 19 56 25 202 11 276-11 58-19 73-60 116l-48 50 15 52c8 28 29 101 48 161 74 242 77 227-42 223l-88-3-13-40c-8-22-25-83-38-135-46-174-65-230-80-230-11 0-14 37-16 203l-3 202-85 3c-47 1-91-2-98-6zm68-207c0-3-2-5-5-5s-5 2-5 5 2 5 5 5 5-2 5-5zm50-50c0-3-2-5-5-5s-5 2-5 5 2 5 5 5 5-2 5-5zm170-180c0-3-2-5-5-5s-5 2-5 5 2 5 5 5 5-2 5-5zm-180-40c0-3-2-5-5-5s-5 2-5 5 2 5 5 5 5-2 5-5zm20-100c0-3-2-5-5-5s-5 2-5 5 2 5 5 5 5-2 5-5zm165-20c22-21 25-33 25-90 0-76-17-155-34-155l-53-9-43-8v287h40c30 0 47-7 65-25zm-245 11c0-3-5-8-12-12s-8-3-4 4c7 12 16 16 16 8zm15-44c-3-3-11 0-18 7-9 10-8 11 6 5 10-3 15-9 12-12zm-28-19c-4-3-10-3-14 0-3 4 0 7 7 7s10-3 7-7zm73 2c0-3-2-5-5-5s-5 2-5 5 2 5 5 5 5-2 5-5zm-23-32c-4-3-7 0-7 7s3 10 7 7c3-4 3-10 0-14zm33 12c0-3-2-5-5-5s-5 2-5 5 2 5 5 5 5-2 5-5zm-80-40c0-3-2-5-5-5s-5 2-5 5 2 5 5 5 5-2 5-5zm-20-10c0-3-2-5-5-5s-5 2-5 5 2 5 5 5 5-2 5-5zm27-22c-4-3-7 0-7 7s3 10 7 7c3-4 3-10 0-14zm0-30c-4-3-7 0-7 7s3 10 7 7c3-4 3-10 0-14zm373-8c0-3-2-5-5-5s-5 2-5 5 2 5 5 5 5-2 5-5zm-380-10c0-3-2-5-5-5s-5 2-5 5 2 5 5 5 5-2 5-5zm30 0c0-3-2-5-5-5s-5 2-5 5 2 5 5 5 5-2 5-5zm20-20c0-3-2-5-5-5s-5 2-5 5 2 5 5 5 5-2 5-5zm-30-10c0-3-2-5-5-5s-5 2-5 5 2 5 5 5 5-2 5-5zm350-10c0-3-2-5-5-5s-5 2-5 5 2 5 5 5 5-2 5-5zm-343-12c-4-3-10-3-14 0-3 4 0 7 7 7s10-3 7-7zm-50-20c-4-3-10-3-14 0-3 4 0 7 7 7s10-3 7-7zm243-48c0-3-2-5-5-5s-5 2-5 5 2 5 5 5 5-2 5-5zm-100-29c0-3-5-8-12-12s-8-3-4 4c7 12 16 16 16 8z"/></g></svg> 