<?xml version="1.0" standalone="no"?>
<!DOCTYPE svg PUBLIC "-//W3C//DTD SVG 20010904//EN"
 "http://www.w3.org/TR/2001/REC-SVG-20010904/DTD/svg10.dtd">
<svg version="1.0" xmlns="http://www.w3.org/2000/svg"
 width="3000.000000pt" height="3000.000000pt" viewBox="0 0 3000.000000 3000.000000"
 preserveAspectRatio="xMidYMid meet">
<metadata>
Created by potrace 1.11, written by Peter Selinger 2001-2013
</metadata>
<g transform="translate(0.000000,3000.000000) scale(0.100000,-0.100000)"
fill="#000000" stroke="none">
<path d="M0 15000 l0 -13950 15000 0 15000 0 0 13950 0 13950 -15000 0 -15000
0 0 -13950z m13384 11094 c9 -8 16 -26 16 -39 0 -13 10 -36 23 -51 20 -22 32
-27 74 -28 61 -1 77 -14 97 -74 98 -297 72 -1267 -39 -1481 -18 -36 -62 -61
-106 -61 -31 0 -31 1 -25 38 17 103 17 131 2 195 -16 70 -83 227 -96 227 -15
0 -20 -32 -20 -123 0 -256 -77 -402 -172 -328 -13 11 -39 47 -57 80 -18 34
-37 61 -42 61 -18 0 -37 -64 -44 -151 -7 -89 -15 -116 -33 -105 -6 4 -47 54
-92 111 -86 112 -134 165 -149 165 -14 0 -21 -27 -21 -88 -1 -158 -53 -220
-130 -156 -38 32 -68 91 -105 204 -31 96 -57 151 -93 197 -29 39 -81 73 -110
73 -31 0 -62 -46 -62 -92 0 -76 32 -108 122 -123 46 -7 60 -30 56 -88 -3 -39
-6 -44 -50 -65 -81 -40 -181 -52 -538 -62 -386 -11 -503 -24 -606 -69 -49 -22
-68 -62 -86 -181 -20 -138 -16 -2095 5 -2116 3 -4 419 -20 924 -36 505 -17
919 -31 919 -31 6 -7 34 -871 34 -1047 0 -291 -12 -370 -72 -469 -87 -144
-237 -182 -788 -201 -779 -26 -955 -36 -974 -56 -21 -20 -38 -500 -57 -1569
-13 -759 -10 -857 35 -904 65 -68 245 -92 826 -111 325 -10 1626 -40 1743 -40
l57 0 0 -850 0 -850 -182 0 c-101 0 -302 -3 -448 -5 -2035 -41 -3585 -30
-3882 27 -86 16 -89 20 -99 130 -13 155 -28 834 -39 1728 -11 869 -15 5504 -6
6020 3 162 8 516 11 785 6 565 23 1217 34 1354 7 78 12 98 29 112 40 32 271
62 572 74 80 3 190 8 245 11 55 3 744 10 1530 15 1490 9 1726 16 1785 50 24
14 67 10 84 -7z m4117 -44 c471 -21 657 -62 1004 -221 253 -117 449 -242 607
-388 334 -310 546 -690 643 -1152 43 -204 88 -601 106 -944 15 -290 6 -994
-15 -1205 -40 -384 -124 -750 -217 -946 -96 -201 -189 -313 -682 -826 l-229
-238 107 -372 c224 -780 324 -1113 593 -1988 393 -1276 444 -1470 446 -1705 1
-111 -1 -125 -24 -170 -33 -63 -102 -108 -197 -125 -72 -14 -468 -10 -958 9
-132 6 -329 13 -437 17 l-197 7 -92 281 c-136 417 -232 750 -354 1221 -215
832 -431 1603 -555 1974 -108 324 -205 523 -271 560 -101 56 -142 -91 -169
-609 -13 -252 -27 -930 -46 -2285 -9 -627 -17 -1141 -18 -1141 -3 -4 -648 -26
-901 -31 -366 -7 -791 16 -893 48 -17 6 -36 18 -41 28 -14 25 -39 212 -50 371
-34 458 -50 1099 -58 2265 -5 851 7 2387 22 2650 2 44 7 184 10 310 9 334 33
815 51 1004 22 238 36 301 69 301 7 0 16 4 19 9 11 17 -6 41 -55 76 -103 74
-114 144 -50 322 91 254 102 470 25 489 -29 7 -39 40 -54 170 -43 383 -40
1513 6 1914 17 155 34 198 84 222 105 50 488 84 1105 97 503 12 1424 12 1666
1z m-12055 -10 c778 -21 973 -59 1404 -274 301 -151 474 -281 660 -497 133
-154 229 -310 475 -767 l167 -312 -5 -2788 c-3 -1628 -10 -2912 -16 -3087 -29
-818 -67 -1052 -215 -1300 -129 -216 -270 -390 -516 -635 -290 -291 -462 -411
-617 -430 -88 -11 -159 -38 -220 -83 -26 -19 -66 -40 -88 -45 -97 -26 -465
-59 -890 -82 -489 -26 -703 -32 -1366 -37 -708 -6 -994 2 -1163 30 -84 15
-100 32 -121 132 -35 166 -38 449 -30 2750 19 5518 21 5815 37 5885 23 94 47
140 78 146 45 10 50 13 50 34 0 11 -20 49 -44 84 -62 91 -94 208 -121 443 -38
339 -18 661 44 724 52 51 255 81 681 99 448 19 1291 24 1816 10z m-1386
-12200 c285 -18 498 -53 580 -95 41 -21 64 -61 99 -170 49 -153 78 -317 130
-736 59 -472 76 -636 91 -854 16 -231 -3 -335 -61 -335 -58 0 -40 -93 46 -240
87 -148 157 -389 195 -670 71 -518 107 -761 155 -1055 71 -432 89 -590 105
-900 9 -189 18 -238 49 -277 l19 -23 29 21 c53 38 75 101 84 242 13 224 57
509 169 1097 36 189 70 437 70 509 0 98 23 241 91 566 97 467 125 637 159 945
98 890 301 1803 420 1887 41 29 173 57 324 69 352 28 901 -35 1109 -128 80
-36 111 -75 132 -165 17 -77 23 -298 10 -420 -3 -35 -2 -103 4 -152 9 -73 15
-92 34 -110 62 -58 116 -466 136 -1026 11 -303 19 -343 68 -372 19 -11 40 -33
49 -49 8 -16 33 -154 55 -306 22 -153 76 -523 119 -823 44 -300 109 -738 145
-975 36 -236 79 -520 95 -630 17 -110 33 -211 36 -225 l7 -25 8 30 c34 119
235 1442 344 2265 25 190 52 394 61 453 16 117 53 234 89 282 53 70 98 416
130 1000 20 363 46 621 85 855 28 167 54 259 98 353 79 169 134 184 682 194
368 6 713 -7 837 -32 147 -29 196 -66 265 -203 53 -105 54 -131 10 -337 -65
-307 -186 -1001 -432 -2475 -98 -591 -332 -1991 -519 -3110 -187 -1119 -376
-2258 -421 -2530 -195 -1187 -267 -1489 -380 -1584 -102 -85 -569 -142 -977
-118 -308 18 -510 59 -560 115 -30 32 -47 70 -81 182 -111 360 -284 1215 -456
2250 -56 336 -337 2148 -362 2330 -7 55 -17 181 -23 280 -5 99 -12 188 -16
198 -24 60 -60 -48 -124 -370 -55 -274 -85 -450 -395 -2323 -252 -1520 -359
-2137 -387 -2239 -26 -97 -80 -214 -124 -267 -59 -72 -151 -103 -405 -136
-131 -18 -804 -18 -921 0 -123 18 -200 40 -226 64 -110 103 -280 1017 -1033
5538 -623 3738 -668 4018 -700 4370 -17 185 1 254 79 307 42 29 81 40 203 58
213 33 596 43 898 25z m9225 0 c377 -20 582 -53 617 -100 36 -49 57 -209 78
-575 66 -1192 58 -8453 -10 -9370 -21 -274 -80 -315 -484 -337 -221 -11 -768
-5 -961 12 -222 20 -376 62 -409 112 -38 57 -66 757 -83 2058 -13 931 -9 5378
5 6105 24 1240 49 1833 82 1919 16 43 74 99 125 121 27 13 84 28 125 35 159
27 600 36 915 20z m3195 -10 c220 -12 344 -24 442 -45 87 -18 120 -34 135 -65
71 -150 114 -5132 53 -6210 -12 -212 -35 -391 -55 -430 -10 -20 -24 -29 -53
-34 -85 -13 -135 -114 -76 -152 24 -16 28 -16 60 -1 44 22 57 21 78 -2 48 -53
58 -273 46 -1051 -5 -323 -5 -325 18 -383 13 -31 35 -71 48 -87 38 -44 136
-87 244 -107 126 -22 528 -22 1000 2 370 19 872 16 1004 -5 79 -12 101 -27
126 -86 102 -235 153 -1219 78 -1477 -38 -128 -209 -161 -978 -188 -475 -17
-2768 -18 -2970 -1 -295 24 -407 52 -452 113 -24 32 -35 108 -47 354 -47 891
-72 4049 -52 6550 6 792 13 1490 16 1550 2 61 7 263 10 450 11 685 35 1096 66
1157 34 66 115 106 264 129 161 26 680 35 995 19z m5550 -10 c142 -21 205 -68
257 -195 60 -145 81 -640 90 -2055 12 -2117 -56 -4348 -137 -4500 -5 -10 -25
-21 -44 -24 -47 -9 -96 -61 -96 -101 0 -62 53 -82 153 -58 124 30 131 10 124
-327 -3 -135 -13 -337 -23 -450 -9 -113 -17 -290 -18 -395 -1 -224 10 -274 74
-347 46 -53 102 -82 203 -105 106 -25 546 -22 1077 6 464 25 789 25 890 -1
134 -34 202 -93 244 -212 33 -92 43 -160 57 -391 16 -285 -7 -749 -46 -914
-22 -91 -45 -124 -106 -151 -154 -66 -430 -85 -1478 -101 -1246 -20 -2686 15
-2767 66 -15 9 -25 31 -32 72 -25 129 -46 441 -57 838 -3 110 -8 279 -10 375
-12 401 -25 2753 -25 4690 0 3472 20 4120 131 4202 44 33 294 69 614 88 189
11 825 4 925 -10z m5170 -9 c132 -19 220 -42 245 -64 74 -65 103 -485 122
-1757 12 -778 8 -5684 -5 -6510 -18 -1058 -36 -1608 -62 -1789 -11 -80 -45
-125 -122 -164 -82 -42 -183 -56 -496 -69 -410 -17 -933 7 -1139 52 -90 20
-93 25 -104 185 -31 485 -48 4121 -30 6500 9 1191 39 3595 45 3602 0 0 170 8
376 16 408 17 1046 15 1170 -2z"/>
<path d="M12511 25536 c-17 -20 -10 -67 11 -80 25 -15 72 4 76 31 5 36 -15 63
-47 63 -16 0 -34 -6 -40 -14z"/>
<path d="M12812 25438 c-16 -16 -15 -63 2 -77 20 -17 67 -10 80 11 18 29 -4
72 -39 76 -17 2 -36 -3 -43 -10z"/>
<path d="M12222 25304 c-35 -24 -30 -78 12 -120 28 -28 41 -34 78 -34 48 0 88
22 88 49 0 20 -53 77 -89 95 -47 24 -66 26 -89 10z"/>
<path d="M9712 25238 c-16 -16 -15 -63 2 -77 8 -7 27 -11 43 -9 33 4 54 48 37
76 -13 21 -65 27 -82 10z"/>
<path d="M11512 25238 c-7 -7 -12 -24 -12 -38 0 -14 5 -31 12 -38 7 -7 24 -12
38 -12 14 0 31 5 38 12 7 7 12 24 12 38 0 14 -5 31 -12 38 -7 7 -24 12 -38 12
-14 0 -31 -5 -38 -12z"/>
<path d="M11838 25229 c-24 -13 -23 -56 1 -69 11 -5 38 -10 61 -10 73 0 103
36 62 73 -21 19 -96 23 -124 6z"/>
<path d="M12312 25038 c-7 -7 -12 -24 -12 -38 0 -14 5 -31 12 -38 7 -7 24 -12
38 -12 14 0 31 5 38 12 7 7 12 24 12 38 0 14 -5 31 -12 38 -7 7 -24 12 -38 12
-14 0 -31 -5 -38 -12z"/>
<path d="M12512 25038 c-7 -7 -12 -24 -12 -38 0 -14 5 -31 12 -38 7 -7 24 -12
38 -12 14 0 31 5 38 12 7 7 12 24 12 38 0 14 -5 31 -12 38 -7 7 -24 12 -38 12
-14 0 -31 -5 -38 -12z"/>
<path d="M11512 24938 c-7 -7 -12 -24 -12 -38 0 -14 5 -31 12 -38 7 -7 24 -12
38 -12 14 0 31 5 38 12 7 7 12 24 12 38 0 14 -5 31 -12 38 -7 7 -24 12 -38 12
-14 0 -31 -5 -38 -12z"/>
<path d="M11812 24938 c-7 -7 -12 -24 -12 -38 0 -14 5 -31 12 -38 7 -7 24 -12
38 -12 14 0 31 5 38 12 7 7 12 24 12 38 0 14 -5 31 -12 38 -7 7 -24 12 -38 12
-14 0 -31 -5 -38 -12z"/>
<path d="M9775 24843 c-28 -7 -55 -33 -55 -54 0 -25 30 -39 80 -39 50 0 80 14
80 39 0 35 -58 64 -105 54z"/>
<path d="M13112 24738 c-7 -7 -12 -24 -12 -38 0 -14 5 -31 12 -38 7 -7 24 -12
38 -12 14 0 31 5 38 12 7 7 12 24 12 38 0 14 -5 31 -12 38 -7 7 -24 12 -38 12
-14 0 -31 -5 -38 -12z"/>
<path d="M10116 24632 c-9 -14 37 -91 82 -138 33 -35 49 -45 70 -42 40 5 42
46 3 90 -33 38 -146 104 -155 90z"/>
<path d="M10712 24338 c-7 -7 -12 -24 -12 -38 0 -14 5 -31 12 -38 7 -7 24 -12
38 -12 14 0 31 5 38 12 7 7 12 24 12 38 0 14 -5 31 -12 38 -7 7 -24 12 -38 12
-14 0 -31 -5 -38 -12z"/>
<path d="M10111 23936 c-17 -20 -10 -67 11 -80 25 -15 72 4 76 31 5 36 -15 63
-47 63 -16 0 -34 -6 -40 -14z"/>
<path d="M10611 23936 c-22 -26 -9 -69 22 -80 36 -13 61 2 65 38 4 35 -14 56
-48 56 -15 0 -33 -6 -39 -14z"/>
<path d="M10412 23738 c-16 -16 -15 -63 2 -77 8 -7 27 -11 43 -9 33 4 54 48
37 76 -13 21 -65 27 -82 10z"/>
<path d="M11311 21536 c-17 -20 -10 -67 11 -80 25 -15 72 4 76 31 5 36 -15 63
-47 63 -16 0 -34 -6 -40 -14z"/>
<path d="M10511 20736 c-17 -20 -10 -67 11 -80 25 -15 72 4 76 31 5 36 -15 63
-47 63 -16 0 -34 -6 -40 -14z"/>
<path d="M12412 16138 c-7 -7 -12 -24 -12 -38 0 -14 5 -31 12 -38 7 -7 24 -12
38 -12 14 0 31 5 38 12 7 7 12 24 12 38 0 14 -5 31 -12 38 -7 7 -24 12 -38 12
-14 0 -31 -5 -38 -12z"/>
<path d="M16134 25282 c36 -71 101 -134 134 -130 36 4 41 44 11 82 -28 36
-121 96 -149 96 -20 0 -20 -1 4 -48z"/>
<path d="M17212 24938 c-7 -7 -12 -24 -12 -38 0 -14 5 -31 12 -38 7 -7 24 -12
38 -12 14 0 31 5 38 12 7 7 12 24 12 38 0 14 -5 31 -12 38 -7 7 -24 12 -38 12
-14 0 -31 -5 -38 -12z"/>
<path d="M14737 24422 c-37 -41 -10 -72 63 -72 73 0 103 36 62 73 -26 24 -104
23 -125 -1z"/>
<path d="M16600 22984 l0 -1436 303 4 c268 4 311 7 378 26 149 40 298 136 418
268 168 183 200 314 201 809 0 295 -10 462 -41 715 -55 444 -156 790 -252 861
-14 10 -115 32 -267 58 -135 23 -354 62 -486 86 -133 25 -244 45 -248 45 -3 0
-6 -646 -6 -1436z"/>
<path d="M15237 24222 c-37 -41 -10 -72 63 -72 72 0 103 36 64 74 -23 23 -106
21 -127 -2z"/>
<path d="M18712 24138 c-7 -7 -12 -24 -12 -38 0 -14 5 -31 12 -38 7 -7 24 -12
38 -12 14 0 31 5 38 12 7 7 12 24 12 38 0 14 -5 31 -12 38 -7 7 -24 12 -38 12
-14 0 -31 -5 -38 -12z"/>
<path d="M15212 24038 c-7 -7 -12 -24 -12 -38 0 -14 5 -31 12 -38 7 -7 24 -12
38 -12 14 0 31 5 38 12 7 7 12 24 12 38 0 14 -5 31 -12 38 -7 7 -24 12 -38 12
-14 0 -31 -5 -38 -12z"/>
<path d="M15512 23938 c-16 -16 -15 -63 2 -77 8 -7 27 -11 43 -9 33 4 54 48
37 76 -13 21 -65 27 -82 10z"/>
<path d="M15012 23738 c-7 -7 -12 -24 -12 -38 0 -14 5 -31 12 -38 7 -7 24 -12
38 -12 14 0 31 5 38 12 7 7 12 24 12 38 0 14 -5 31 -12 38 -7 7 -24 12 -38 12
-14 0 -31 -5 -38 -12z"/>
<path d="M15312 23738 c-7 -7 -12 -24 -12 -38 0 -14 5 -31 12 -38 7 -7 24 -12
38 -12 14 0 31 5 38 12 7 7 12 24 12 38 0 14 -5 31 -12 38 -7 7 -24 12 -38 12
-14 0 -31 -5 -38 -12z"/>
<path d="M18812 23638 c-7 -7 -12 -24 -12 -38 0 -14 5 -31 12 -38 7 -7 24 -12
38 -12 14 0 31 5 38 12 7 7 12 24 12 38 0 14 -5 31 -12 38 -7 7 -24 12 -38 12
-14 0 -31 -5 -38 -12z"/>
<path d="M15110 23511 c-5 -11 -10 -38 -10 -61 0 -51 15 -80 40 -80 27 0 50
38 50 83 0 51 -15 77 -45 77 -14 0 -29 -8 -35 -19z"/>
<path d="M15110 23211 c-5 -11 -10 -38 -10 -61 0 -73 36 -103 73 -62 24 26 23
104 -1 125 -25 22 -49 21 -62 -2z"/>
<path d="M14812 23038 c-16 -16 -15 -63 2 -77 20 -17 67 -10 80 11 18 29 -4
72 -39 76 -17 2 -36 -3 -43 -10z"/>
<path d="M15012 22938 c-7 -7 -12 -24 -12 -38 0 -14 5 -31 12 -38 7 -7 24 -12
38 -12 14 0 31 5 38 12 7 7 12 24 12 38 0 14 -5 31 -12 38 -7 7 -24 12 -38 12
-14 0 -31 -5 -38 -12z"/>
<path d="M15510 22611 c-5 -11 -10 -38 -10 -61 0 -73 36 -103 73 -62 24 26 23
104 -1 125 -25 22 -49 21 -62 -2z"/>
<path d="M15812 22538 c-7 -7 -12 -24 -12 -38 0 -14 5 -31 12 -38 7 -7 24 -12
38 -12 14 0 31 5 38 12 7 7 12 24 12 38 0 14 -5 31 -12 38 -7 7 -24 12 -38 12
-14 0 -31 -5 -38 -12z"/>
<path d="M14980 22343 c-42 -13 -60 -28 -60 -49 0 -29 27 -44 80 -44 53 0 80
15 80 44 0 30 -63 61 -100 49z"/>
<path d="M15711 22336 c-17 -20 -10 -67 11 -80 25 -15 72 4 76 31 5 36 -15 63
-47 63 -16 0 -34 -6 -40 -14z"/>
<path d="M15270 22133 c-56 -21 -175 -142 -157 -160 8 -8 118 32 178 64 77 41
93 104 27 102 -18 0 -40 -3 -48 -6z"/>
<path d="M15017 21833 c-14 -14 68 -141 108 -167 58 -38 99 10 56 66 -33 42
-151 115 -164 101z"/>
<path d="M15912 21638 c-7 -7 -12 -24 -12 -38 0 -14 5 -31 12 -38 7 -7 24 -12
38 -12 14 0 31 5 38 12 7 7 12 24 12 38 0 14 -5 31 -12 38 -7 7 -24 12 -38 12
-14 0 -31 -5 -38 -12z"/>
<path d="M15712 20638 c-7 -7 -12 -24 -12 -38 0 -14 5 -31 12 -38 7 -7 24 -12
38 -12 14 0 31 5 38 12 7 7 12 24 12 38 0 14 -5 31 -12 38 -7 7 -24 12 -38 12
-14 0 -31 -5 -38 -12z"/>
<path d="M17512 20238 c-7 -7 -12 -24 -12 -38 0 -14 5 -31 12 -38 7 -7 24 -12
38 -12 14 0 31 5 38 12 7 7 12 24 12 38 0 14 -5 31 -12 38 -7 7 -24 12 -38 12
-14 0 -31 -5 -38 -12z"/>
<path d="M15812 18438 c-7 -7 -12 -24 -12 -38 0 -14 5 -31 12 -38 7 -7 24 -12
38 -12 14 0 31 5 38 12 7 7 12 24 12 38 0 14 -5 31 -12 38 -7 7 -24 12 -38 12
-14 0 -31 -5 -38 -12z"/>
<path d="M15311 17936 c-17 -20 -10 -67 11 -80 25 -15 72 4 76 31 5 36 -15 63
-47 63 -16 0 -34 -6 -40 -14z"/>
<path d="M4511 25536 c-17 -20 -10 -67 11 -80 25 -15 72 4 76 31 5 36 -15 63
-47 63 -16 0 -34 -6 -40 -14z"/>
<path d="M4812 25538 c-7 -7 -12 -24 -12 -38 0 -33 17 -50 50 -50 33 0 50 17
50 50 0 33 -17 50 -50 50 -14 0 -31 -5 -38 -12z"/>
<path d="M5510 25411 c-5 -11 -10 -38 -10 -61 0 -73 36 -103 73 -62 24 26 23
104 -1 125 -25 22 -49 21 -62 -2z"/>
<path d="M6312 25238 c-7 -7 -12 -24 -12 -38 0 -33 17 -50 50 -50 33 0 50 17
50 50 0 33 -17 50 -50 50 -14 0 -31 -5 -38 -12z"/>
<path d="M3711 25136 c-17 -20 -10 -67 11 -80 25 -15 72 4 76 31 5 36 -15 63
-47 63 -16 0 -34 -6 -40 -14z"/>
<path d="M5312 25038 c-7 -7 -12 -24 -12 -38 0 -33 17 -50 50 -50 33 0 50 17
50 50 0 33 -17 50 -50 50 -14 0 -31 -5 -38 -12z"/>
<path d="M4034 24979 c-62 -23 -120 -77 -129 -119 -5 -21 0 -43 15 -74 23 -48
100 -126 124 -126 23 0 45 38 71 126 32 102 35 182 9 201 -23 17 -28 16 -90
-8z"/>
<path d="M4912 24938 c-7 -7 -12 -24 -12 -38 0 -33 17 -50 50 -50 33 0 50 17
50 50 0 33 -17 50 -50 50 -14 0 -31 -5 -38 -12z"/>
<path d="M3412 24838 c-7 -7 -12 -24 -12 -38 0 -33 17 -50 50 -50 33 0 50 17
50 50 0 33 -17 50 -50 50 -14 0 -31 -5 -38 -12z"/>
<path d="M4712 24838 c-7 -7 -12 -24 -12 -38 0 -33 17 -50 50 -50 33 0 50 17
50 50 0 33 -17 50 -50 50 -14 0 -31 -5 -38 -12z"/>
<path d="M7112 24738 c-7 -7 -12 -24 -12 -38 0 -33 17 -50 50 -50 33 0 50 17
50 50 0 33 -17 50 -50 50 -14 0 -31 -5 -38 -12z"/>
<path d="M4510 24624 c-35 -30 -90 -119 -90 -147 0 -26 25 -31 58 -12 37 22
92 105 99 150 5 30 3 35 -15 35 -11 0 -35 -12 -52 -26z"/>
<path d="M3720 24496 c-13 -35 -13 -182 0 -207 16 -29 39 -23 56 16 25 62 12
166 -27 201 -17 16 -19 15 -29 -10z"/>
<path d="M4900 24038 c0 -511 -31 -788 -89 -788 -11 0 -29 -13 -40 -29 -62
-86 -48 -299 26 -412 44 -68 67 -268 83 -725 5 -153 10 -1114 10 -2134 0
-1020 3 -2000 7 -2177 l6 -323 189 0 c254 0 431 27 658 101 283 93 377 221
409 560 71 752 59 3993 -19 5294 -20 329 -42 442 -113 580 -39 77 -90 129
-165 168 -116 61 -219 83 -924 193 l-38 6 0 -314z"/>
<path d="M6911 24336 c-17 -20 -10 -67 11 -80 25 -15 72 4 76 31 5 36 -15 63
-47 63 -16 0 -34 -6 -40 -14z"/>
<path d="M4312 24038 c-7 -7 -12 -24 -12 -38 0 -33 17 -50 50 -50 33 0 50 17
50 50 0 33 -17 50 -50 50 -14 0 -31 -5 -38 -12z"/>
<path d="M3612 23938 c-7 -7 -12 -24 -12 -38 0 -33 17 -50 50 -50 33 0 50 17
50 50 0 33 -17 50 -50 50 -14 0 -31 -5 -38 -12z"/>
<path d="M3212 23838 c-16 -16 -15 -63 2 -77 20 -17 67 -10 80 11 18 29 -4 72
-39 76 -17 2 -36 -3 -43 -10z"/>
<path d="M3612 23538 c-7 -7 -12 -24 -12 -38 0 -33 17 -50 50 -50 33 0 50 17
50 50 0 33 -17 50 -50 50 -14 0 -31 -5 -38 -12z"/>
<path d="M3812 23438 c-7 -7 -12 -24 -12 -38 0 -33 17 -50 50 -50 33 0 50 17
50 50 0 33 -17 50 -50 50 -14 0 -31 -5 -38 -12z"/>
<path d="M4612 23438 c-7 -7 -12 -24 -12 -38 0 -33 17 -50 50 -50 33 0 50 17
50 50 0 33 -17 50 -50 50 -14 0 -31 -5 -38 -12z"/>
<path d="M4112 23238 c-16 -16 -15 -63 2 -77 8 -7 27 -11 43 -9 33 4 54 48 37
76 -13 21 -65 27 -82 10z"/>
<path d="M3521 23197 c-14 -36 -14 -182 -1 -208 16 -29 39 -23 56 16 25 60 13
149 -25 197 l-19 23 -11 -28z"/>
<path d="M4412 23138 c-7 -7 -12 -24 -12 -38 0 -33 17 -50 50 -50 33 0 50 17
50 50 0 33 -17 50 -50 50 -14 0 -31 -5 -38 -12z"/>
<path d="M3900 22683 c-82 -14 -123 -44 -139 -101 -14 -49 12 -75 74 -74 84 2
265 71 265 102 0 18 -22 41 -55 58 -25 12 -111 21 -145 15z"/>
<path d="M4312 22538 c-7 -7 -12 -24 -12 -38 0 -33 17 -50 50 -50 33 0 50 17
50 50 0 33 -17 50 -50 50 -14 0 -31 -5 -38 -12z"/>
<path d="M3312 22438 c-16 -16 -15 -63 2 -77 8 -7 27 -11 43 -9 33 4 54 48 37
76 -13 21 -65 27 -82 10z"/>
<path d="M3795 22106 c-48 -49 -85 -130 -68 -147 27 -27 95 30 133 111 41 87
3 108 -65 36z"/>
<path d="M3412 22038 c-7 -7 -12 -24 -12 -38 0 -33 17 -50 50 -50 33 0 50 17
50 50 0 33 -17 50 -50 50 -14 0 -31 -5 -38 -12z"/>
<path d="M4080 21931 c-36 -10 -37 -36 0 -51 67 -28 87 -91 50 -152 -23 -38
-26 -78 -6 -78 8 0 36 17 63 39 128 103 207 226 157 245 -21 8 -233 6 -264 -3z"/>
<path d="M3300 21840 c0 -11 116 -158 169 -213 72 -76 131 -96 131 -43 0 27
-104 130 -218 216 -68 51 -82 58 -82 40z"/>
<path d="M3875 21542 c-28 -6 -55 -32 -55 -53 0 -25 30 -39 80 -39 53 0 80 15
80 44 0 31 -57 58 -105 48z"/>
<path d="M4212 21538 c-7 -7 -12 -24 -12 -38 0 -33 17 -50 50 -50 33 0 50 17
50 50 0 33 -17 50 -50 50 -14 0 -31 -5 -38 -12z"/>
<path d="M4378 21300 c-73 -22 -128 -78 -128 -130 0 -33 53 -80 90 -80 90 0
176 96 156 175 -4 17 -17 27 -44 34 -42 12 -37 12 -74 1z"/>
<path d="M3937 21222 c-37 -41 -10 -72 63 -72 73 0 103 36 62 73 -26 24 -104
23 -125 -1z"/>
<path d="M3912 20838 c-7 -7 -12 -24 -12 -38 0 -33 17 -50 50 -50 33 0 50 17
50 50 0 33 -17 50 -50 50 -14 0 -31 -5 -38 -12z"/>
<path d="M4312 20838 c-7 -7 -12 -24 -12 -38 0 -33 17 -50 50 -50 33 0 50 17
50 50 0 33 -17 50 -50 50 -14 0 -31 -5 -38 -12z"/>
<path d="M6612 19138 c-7 -7 -12 -24 -12 -38 0 -33 17 -50 50 -50 33 0 50 17
50 50 0 33 -17 50 -50 50 -14 0 -31 -5 -38 -12z"/>
<path d="M4111 18336 c-17 -20 -10 -67 11 -80 25 -15 72 4 76 31 5 36 -15 63
-47 63 -16 0 -34 -6 -40 -14z"/>
<path d="M3993 13127 c-18 -7 -40 -20 -49 -29 -16 -16 -16 -18 10 -28 35 -13
182 -13 207 0 76 41 -74 91 -168 57z"/>
<path d="M7529 12907 c-18 -9 -25 -22 -27 -50 -3 -32 2 -43 31 -72 28 -28 43
-35 74 -35 48 0 87 20 91 45 3 25 -60 88 -109 109 -28 12 -40 12 -60 3z"/>
<path d="M10012 12838 c-7 -7 -12 -24 -12 -38 0 -33 17 -50 50 -50 33 0 50 17
50 50 0 33 -17 50 -50 50 -14 0 -31 -5 -38 -12z"/>
<path d="M10511 12736 c-17 -20 -10 -67 11 -80 25 -15 72 4 76 31 5 36 -15 63
-47 63 -16 0 -34 -6 -40 -14z"/>
<path d="M6710 12711 c-5 -11 -10 -38 -10 -61 0 -73 36 -103 73 -62 21 23 22
99 3 125 -18 23 -53 22 -66 -2z"/>
<path d="M9812 12638 c-7 -7 -12 -24 -12 -38 0 -33 17 -50 50 -50 33 0 50 17
50 50 0 33 -17 50 -50 50 -14 0 -31 -5 -38 -12z"/>
<path d="M3445 12533 c-100 -52 -149 -162 -79 -179 62 -16 151 31 184 96 25
48 25 62 2 83 -23 21 -68 21 -107 0z"/>
<path d="M4612 12538 c-7 -7 -12 -24 -12 -38 0 -33 17 -50 50 -50 33 0 50 17
50 50 0 33 -17 50 -50 50 -14 0 -31 -5 -38 -12z"/>
<path d="M7412 12538 c-7 -7 -12 -24 -12 -38 0 -33 17 -50 50 -50 33 0 50 17
50 50 0 33 -17 50 -50 50 -14 0 -31 -5 -38 -12z"/>
<path d="M4236 12524 c-39 -38 -8 -74 64 -74 73 0 103 36 62 73 -24 22 -105
23 -126 1z"/>
<path d="M7612 12438 c-7 -7 -12 -24 -12 -38 0 -33 17 -50 50 -50 33 0 50 17
50 50 0 33 -17 50 -50 50 -14 0 -31 -5 -38 -12z"/>
<path d="M10437 12422 c-37 -41 -10 -72 63 -72 54 0 80 15 80 45 0 31 -26 45
-83 45 -30 0 -49 -6 -60 -18z"/>
<path d="M9623 12343 c-37 -14 10 -58 153 -142 102 -60 124 -55 124 28 0 78
-67 121 -190 120 -41 0 -81 -3 -87 -6z"/>
<path d="M7365 12221 c-102 -48 -191 -201 -143 -249 33 -33 129 1 195 69 63
66 93 155 61 187 -17 17 -67 14 -113 -7z"/>
<path d="M10236 12224 c-39 -38 -8 -74 64 -74 73 0 103 36 62 73 -24 22 -105
23 -126 1z"/>
<path d="M4407 12121 c-42 -37 -93 -131 -84 -154 17 -44 97 15 137 100 37 79
9 107 -53 54z"/>
<path d="M6712 12038 c-7 -7 -12 -24 -12 -38 0 -33 17 -50 50 -50 33 0 50 17
50 50 0 33 -17 50 -50 50 -14 0 -31 -5 -38 -12z"/>
<path d="M9711 11936 c-17 -20 -10 -67 11 -80 25 -15 72 4 76 31 5 36 -15 63
-47 63 -16 0 -34 -6 -40 -14z"/>
<path d="M7412 11838 c-7 -7 -12 -24 -12 -38 0 -33 17 -50 50 -50 33 0 50 17
50 50 0 33 -17 50 -50 50 -14 0 -31 -5 -38 -12z"/>
<path d="M3745 11730 c-65 -71 141 -233 209 -164 19 18 19 24 5 61 -33 89
-168 154 -214 103z"/>
<path d="M7712 11738 c-7 -7 -12 -24 -12 -38 0 -33 17 -50 50 -50 33 0 50 17
50 50 0 33 -17 50 -50 50 -14 0 -31 -5 -38 -12z"/>
<path d="M7012 11538 c-7 -7 -12 -24 -12 -38 0 -33 17 -50 50 -50 33 0 50 17
50 50 0 33 -17 50 -50 50 -14 0 -31 -5 -38 -12z"/>
<path d="M7812 11438 c-7 -7 -12 -24 -12 -38 0 -33 17 -50 50 -50 33 0 50 17
50 50 0 33 -17 50 -50 50 -14 0 -31 -5 -38 -12z"/>
<path d="M4310 11411 c-5 -11 -10 -38 -10 -61 0 -73 36 -103 73 -62 24 26 23
104 -1 125 -25 22 -49 21 -62 -2z"/>
<path d="M4712 11338 c-7 -7 -12 -24 -12 -38 0 -33 17 -50 50 -50 33 0 50 17
50 50 0 33 -17 50 -50 50 -14 0 -31 -5 -38 -12z"/>
<path d="M7212 11338 c-7 -7 -12 -24 -12 -38 0 -33 17 -50 50 -50 33 0 50 17
50 50 0 33 -17 50 -50 50 -14 0 -31 -5 -38 -12z"/>
<path d="M8012 11338 c-7 -7 -12 -24 -12 -38 0 -33 17 -50 50 -50 33 0 50 17
50 50 0 33 -17 50 -50 50 -14 0 -31 -5 -38 -12z"/>
<path d="M9612 11338 c-7 -7 -12 -24 -12 -38 0 -33 17 -50 50 -50 33 0 50 17
50 50 0 33 -17 50 -50 50 -14 0 -31 -5 -38 -12z"/>
<path d="M4112 11238 c-16 -16 -15 -63 2 -77 8 -7 27 -11 43 -9 33 4 54 48 37
76 -13 21 -65 27 -82 10z"/>
<path d="M4580 11143 c-42 -13 -60 -28 -60 -49 0 -29 27 -44 80 -44 53 0 80
15 80 44 0 30 -63 61 -100 49z"/>
<path d="M7980 11065 c-58 -47 -122 -102 -142 -124 -66 -69 -41 -116 33 -65
49 34 229 242 229 265 0 17 -16 7 -120 -76z"/>
<path d="M4912 11038 c-7 -7 -12 -24 -12 -38 0 -33 17 -50 50 -50 33 0 50 17
50 50 0 33 -17 50 -50 50 -14 0 -31 -5 -38 -12z"/>
<path d="M8210 11011 c-5 -11 -10 -38 -10 -61 0 -73 36 -103 73 -62 24 26 23
104 -1 125 -25 22 -49 21 -62 -2z"/>
<path d="M4712 10738 c-7 -7 -12 -24 -12 -38 0 -33 17 -50 50 -50 33 0 50 17
50 50 0 33 -17 50 -50 50 -14 0 -31 -5 -38 -12z"/>
<path d="M7712 10638 c-7 -7 -12 -24 -12 -38 0 -33 17 -50 50 -50 33 0 50 17
50 50 0 33 -17 50 -50 50 -14 0 -31 -5 -38 -12z"/>
<path d="M9337 10622 c-37 -41 -10 -72 63 -72 73 0 103 36 62 73 -26 24 -104
23 -125 -1z"/>
<path d="M4112 10538 c-7 -7 -12 -24 -12 -38 0 -33 17 -50 50 -50 33 0 50 17
50 50 0 33 -17 50 -50 50 -14 0 -31 -5 -38 -12z"/>
<path d="M9612 10538 c-7 -7 -12 -24 -12 -38 0 -33 17 -50 50 -50 33 0 50 17
50 50 0 33 -17 50 -50 50 -14 0 -31 -5 -38 -12z"/>
<path d="M7337 10522 c-37 -41 -10 -72 63 -72 73 0 103 36 62 73 -26 24 -104
23 -125 -1z"/>
<path d="M3912 10438 c-7 -7 -12 -24 -12 -38 0 -33 17 -50 50 -50 33 0 50 17
50 50 0 33 -17 50 -50 50 -14 0 -31 -5 -38 -12z"/>
<path d="M7612 9838 c-7 -7 -12 -24 -12 -38 0 -14 5 -31 12 -38 7 -7 24 -12
38 -12 14 0 31 5 38 12 7 7 12 24 12 38 0 14 -5 31 -12 38 -7 7 -24 12 -38 12
-14 0 -31 -5 -38 -12z"/>
<path d="M4112 9638 c-16 -16 -15 -63 2 -77 8 -7 27 -11 43 -9 33 4 54 48 37
76 -13 21 -65 27 -82 10z"/>
<path d="M4812 9638 c-7 -7 -12 -24 -12 -38 0 -14 5 -31 12 -38 7 -7 24 -12
38 -12 14 0 31 5 38 12 7 7 12 24 12 38 0 14 -5 31 -12 38 -7 7 -24 12 -38 12
-14 0 -31 -5 -38 -12z"/>
<path d="M6612 9538 c-7 -7 -12 -24 -12 -38 0 -14 5 -31 12 -38 7 -7 24 -12
38 -12 14 0 31 5 38 12 7 7 12 24 12 38 0 14 -5 31 -12 38 -7 7 -24 12 -38 12
-14 0 -31 -5 -38 -12z"/>
<path d="M6412 8138 c-7 -7 -12 -24 -12 -38 0 -14 5 -31 12 -38 7 -7 24 -12
38 -12 14 0 31 5 38 12 7 7 12 24 12 38 0 14 -5 31 -12 38 -7 7 -24 12 -38 12
-14 0 -31 -5 -38 -12z"/>
<path d="M8912 6238 c-7 -7 -12 -24 -12 -38 0 -14 5 -31 12 -38 7 -7 24 -12
38 -12 14 0 31 5 38 12 7 7 12 24 12 38 0 14 -5 31 -12 38 -7 7 -24 12 -38 12
-14 0 -31 -5 -38 -12z"/>
<path d="M5712 5338 c-7 -7 -12 -24 -12 -38 0 -14 5 -31 12 -38 7 -7 24 -12
38 -12 14 0 31 5 38 12 7 7 12 24 12 38 0 14 -5 31 -12 38 -7 7 -24 12 -38 12
-14 0 -31 -5 -38 -12z"/>
<path d="M12612 12338 c-7 -7 -12 -24 -12 -38 0 -14 5 -31 12 -38 7 -7 24 -12
38 -12 14 0 31 5 38 12 7 7 12 24 12 38 0 14 -5 31 -12 38 -7 7 -24 12 -38 12
-14 0 -31 -5 -38 -12z"/>
<path d="M13512 12238 c-7 -7 -12 -24 -12 -38 0 -14 5 -31 12 -38 7 -7 24 -12
38 -12 14 0 31 5 38 12 7 7 12 24 12 38 0 14 -5 31 -12 38 -7 7 -24 12 -38 12
-14 0 -31 -5 -38 -12z"/>
<path d="M13212 12038 c-7 -7 -12 -24 -12 -38 0 -14 5 -31 12 -38 7 -7 24 -12
38 -12 14 0 31 5 38 12 7 7 12 24 12 38 0 14 -5 31 -12 38 -7 7 -24 12 -38 12
-14 0 -31 -5 -38 -12z"/>
<path d="M12911 11936 c-17 -20 -10 -67 11 -80 25 -15 72 4 76 31 5 36 -15 63
-47 63 -16 0 -34 -6 -40 -14z"/>
<path d="M13412 11838 c-7 -7 -12 -24 -12 -38 0 -14 5 -31 12 -38 7 -7 24 -12
38 -12 14 0 31 5 38 12 7 7 12 24 12 38 0 14 -5 31 -12 38 -7 7 -24 12 -38 12
-14 0 -31 -5 -38 -12z"/>
<path d="M12912 11738 c-7 -7 -12 -24 -12 -38 0 -14 5 -31 12 -38 7 -7 24 -12
38 -12 14 0 31 5 38 12 7 7 12 24 12 38 0 14 -5 31 -12 38 -7 7 -24 12 -38 12
-14 0 -31 -5 -38 -12z"/>
<path d="M12983 11291 c-47 -29 -83 -97 -83 -157 0 -57 18 -91 44 -81 39 15
123 190 111 234 -7 28 -30 29 -72 4z"/>
<path d="M12975 10843 c-28 -7 -55 -33 -55 -54 0 -25 30 -39 80 -39 50 0 80
14 80 39 0 35 -58 64 -105 54z"/>
<path d="M12710 10711 c-5 -11 -10 -38 -10 -61 0 -51 15 -80 40 -80 43 0 68
100 36 143 -18 23 -53 22 -66 -2z"/>
<path d="M13112 10438 c-7 -7 -12 -24 -12 -38 0 -14 5 -31 12 -38 7 -7 24 -12
38 -12 14 0 31 5 38 12 7 7 12 24 12 38 0 14 -5 31 -12 38 -7 7 -24 12 -38 12
-14 0 -31 -5 -38 -12z"/>
<path d="M12912 9238 c-16 -16 -15 -63 2 -77 8 -7 27 -11 43 -9 33 4 54 48 37
76 -13 21 -65 27 -82 10z"/>
<path d="M12344 8826 c-14 -23 -14 -28 4 -68 21 -48 63 -94 95 -104 31 -10 57
28 57 83 0 38 -5 50 -34 79 -43 43 -97 48 -122 10z"/>
<path d="M12812 8338 c-7 -7 -12 -24 -12 -38 0 -33 17 -50 50 -50 33 0 50 17
50 50 0 33 -17 50 -50 50 -14 0 -31 -5 -38 -12z"/>
<path d="M13012 7238 c-7 -7 -12 -24 -12 -38 0 -33 17 -50 50 -50 33 0 50 17
50 50 0 33 -17 50 -50 50 -14 0 -31 -5 -38 -12z"/>
<path d="M12911 5536 c-17 -20 -10 -67 11 -80 25 -15 72 4 76 31 5 36 -15 63
-47 63 -16 0 -34 -6 -40 -14z"/>
<path d="M16312 12038 c-7 -7 -12 -24 -12 -38 0 -14 5 -31 12 -38 7 -7 24 -12
38 -12 14 0 31 5 38 12 7 7 12 24 12 38 0 14 -5 31 -12 38 -7 7 -24 12 -38 12
-14 0 -31 -5 -38 -12z"/>
<path d="M16012 11738 c-16 -16 -15 -63 2 -77 8 -7 27 -11 43 -9 33 4 54 48
37 76 -13 21 -65 27 -82 10z"/>
<path d="M16112 11238 c-16 -16 -15 -63 2 -77 8 -7 27 -11 43 -9 33 4 54 48
37 76 -13 21 -65 27 -82 10z"/>
<path d="M16012 11038 c-16 -16 -15 -63 2 -77 20 -17 67 -10 80 11 18 29 -4
72 -39 76 -17 2 -36 -3 -43 -10z"/>
<path d="M16212 10838 c-7 -7 -12 -24 -12 -38 0 -14 5 -31 12 -38 7 -7 24 -12
38 -12 14 0 31 5 38 12 7 7 12 24 12 38 0 14 -5 31 -12 38 -7 7 -24 12 -38 12
-14 0 -31 -5 -38 -12z"/>
<path d="M16210 9911 c-5 -11 -10 -38 -10 -61 0 -73 36 -103 73 -62 21 23 22
99 3 125 -18 23 -53 22 -66 -2z"/>
<path d="M15921 9597 c-14 -36 -14 -182 -1 -208 16 -29 39 -23 56 16 25 60 13
149 -25 197 l-19 23 -11 -28z"/>
<path d="M15812 8938 c-7 -7 -12 -24 -12 -38 0 -33 17 -50 50 -50 33 0 50 17
50 50 0 33 -17 50 -50 50 -14 0 -31 -5 -38 -12z"/>
<path d="M16412 8838 c-7 -7 -12 -24 -12 -38 0 -33 17 -50 50 -50 33 0 50 17
50 50 0 33 -17 50 -50 50 -14 0 -31 -5 -38 -12z"/>
<path d="M15710 8711 c-5 -11 -10 -38 -10 -61 0 -52 15 -80 42 -80 30 0 47 29
48 81 0 67 -54 108 -80 60z"/>
<path d="M16310 8611 c-5 -11 -10 -38 -10 -61 0 -73 36 -103 73 -62 24 26 23
104 -1 125 -25 22 -49 21 -62 -2z"/>
<path d="M16512 8438 c-16 -16 -15 -63 2 -77 8 -7 27 -11 43 -9 33 4 54 48 37
76 -13 21 -65 27 -82 10z"/>
<path d="M16372 8128 c-28 -31 -42 -71 -42 -124 0 -82 50 -143 124 -151 38 -5
48 -2 70 20 20 20 26 36 26 68 0 75 -89 209 -139 209 -10 0 -27 -10 -39 -22z"/>
<path d="M15712 8038 c-16 -16 -15 -63 2 -77 8 -7 27 -11 43 -9 33 4 54 48 37
76 -13 21 -65 27 -82 10z"/>
<path d="M15922 7904 c-36 -25 -30 -78 13 -121 33 -33 39 -35 86 -31 84 8 99
45 41 103 -51 51 -108 71 -140 49z"/>
<path d="M16412 7638 c-7 -7 -12 -24 -12 -38 0 -33 17 -50 50 -50 33 0 50 17
50 50 0 33 -17 50 -50 50 -14 0 -31 -5 -38 -12z"/>
<path d="M15912 7238 c-7 -7 -12 -24 -12 -38 0 -33 17 -50 50 -50 33 0 50 17
50 50 0 33 -17 50 -50 50 -14 0 -31 -5 -38 -12z"/>
<path d="M16111 7136 c-17 -20 -10 -67 11 -80 25 -15 72 4 76 31 5 36 -15 63
-47 63 -16 0 -34 -6 -40 -14z"/>
<path d="M16712 7138 c-7 -7 -12 -24 -12 -38 0 -33 17 -50 50 -50 33 0 50 17
50 50 0 33 -17 50 -50 50 -14 0 -31 -5 -38 -12z"/>
<path d="M16612 6838 c-29 -29 -5 -88 36 -88 35 0 52 16 52 50 0 33 -17 50
-50 50 -14 0 -31 -5 -38 -12z"/>
<path d="M16153 6684 c-47 -17 -103 -74 -103 -105 0 -26 16 -57 48 -91 45 -49
71 -34 116 62 33 71 42 116 26 135 -15 18 -32 18 -87 -1z"/>
<path d="M16412 6638 c-7 -7 -12 -24 -12 -38 0 -33 17 -50 50 -50 33 0 50 17
50 50 0 33 -17 50 -50 50 -14 0 -31 -5 -38 -12z"/>
<path d="M16420 6317 c0 -23 75 -131 104 -150 39 -26 70 -19 74 16 3 23 -5 37
-38 68 -39 37 -108 79 -130 79 -5 0 -10 -6 -10 -13z"/>
<path d="M16310 5417 c0 -2 38 -36 85 -76 85 -74 145 -149 145 -183 0 -10 -7
-29 -15 -41 -13 -20 -13 -25 1 -45 28 -41 120 -25 161 28 37 46 -7 122 -108
191 -91 61 -269 145 -269 126z"/>
<path d="M16218 5023 c-7 -16 -12 -79 -12 -148 -1 -106 2 -125 22 -168 39 -78
91 -75 113 6 9 33 7 56 -11 131 -22 95 -66 198 -87 204 -7 2 -18 -9 -25 -25z"/>
<path d="M16736 4924 c-39 -38 -8 -74 64 -74 51 0 80 15 80 40 0 32 -28 50
-80 50 -31 0 -54 -6 -64 -16z"/>
<path d="M19220 4820 c0 -24 43 -93 81 -131 30 -30 47 -39 67 -37 20 2 28 9
30 29 4 33 -29 73 -94 115 -53 34 -84 43 -84 24z"/>
<path d="M18512 4638 c-7 -7 -12 -24 -12 -38 0 -33 17 -50 50 -50 33 0 50 17
50 50 0 33 -17 50 -50 50 -14 0 -31 -5 -38 -12z"/>
<path d="M16812 4538 c-16 -16 -15 -63 2 -77 8 -7 27 -11 43 -9 33 4 54 48 37
76 -13 21 -65 27 -82 10z"/>
<path d="M17112 4538 c-7 -7 -12 -24 -12 -38 0 -33 17 -50 50 -50 33 0 50 17
50 50 0 33 -17 50 -50 50 -14 0 -31 -5 -38 -12z"/>
<path d="M16231 4488 c46 -91 114 -150 154 -134 22 8 18 49 -7 81 -27 35 -121
95 -148 95 l-20 0 21 -42z"/>
<path d="M17712 4438 c-16 -16 -15 -63 2 -77 8 -7 27 -11 43 -9 33 4 54 48 37
76 -13 21 -65 27 -82 10z"/>
<path d="M18212 4438 c-29 -29 -5 -88 36 -88 35 0 52 16 52 50 0 33 -17 50
-50 50 -14 0 -31 -5 -38 -12z"/>
<path d="M21112 12038 c-7 -7 -12 -24 -12 -38 0 -14 5 -31 12 -38 7 -7 24 -12
38 -12 14 0 31 5 38 12 7 7 12 24 12 38 0 14 -5 31 -12 38 -7 7 -24 12 -38 12
-14 0 -31 -5 -38 -12z"/>
<path d="M21512 12038 c-7 -7 -12 -24 -12 -38 0 -14 5 -31 12 -38 7 -7 24 -12
38 -12 14 0 31 5 38 12 7 7 12 24 12 38 0 14 -5 31 -12 38 -7 7 -24 12 -38 12
-14 0 -31 -5 -38 -12z"/>
<path d="M21510 11831 c-23 -44 -5 -81 40 -81 14 0 31 5 38 12 7 7 12 24 12
38 0 14 -5 31 -12 38 -19 19 -66 15 -78 -7z"/>
<path d="M21312 11738 c-7 -7 -12 -24 -12 -38 0 -14 5 -31 12 -38 7 -7 24 -12
38 -12 14 0 31 5 38 12 7 7 12 24 12 38 0 14 -5 31 -12 38 -7 7 -24 12 -38 12
-14 0 -31 -5 -38 -12z"/>
<path d="M21375 11243 c-28 -7 -55 -33 -55 -54 0 -25 30 -39 80 -39 50 0 80
14 80 39 0 35 -58 64 -105 54z"/>
<path d="M21412 10838 c-29 -29 -5 -88 36 -88 35 0 52 16 52 50 0 14 -5 31
-12 38 -7 7 -24 12 -38 12 -14 0 -31 -5 -38 -12z"/>
<path d="M21312 10538 c-7 -7 -12 -24 -12 -38 0 -14 5 -31 12 -38 7 -7 24 -12
38 -12 14 0 31 5 38 12 7 7 12 24 12 38 0 14 -5 31 -12 38 -7 7 -24 12 -38 12
-14 0 -31 -5 -38 -12z"/>
<path d="M21410 9911 c-5 -11 -10 -38 -10 -61 0 -50 14 -80 39 -80 30 0 51 33
51 79 0 55 -15 81 -45 81 -14 0 -29 -8 -35 -19z"/>
<path d="M21110 9611 c-5 -11 -10 -38 -10 -61 0 -73 36 -103 73 -62 24 26 23
104 -1 125 -25 22 -49 21 -62 -2z"/>
<path d="M21612 8838 c-7 -7 -12 -24 -12 -38 0 -33 17 -50 50 -50 33 0 50 17
50 50 0 33 -17 50 -50 50 -14 0 -31 -5 -38 -12z"/>
<path d="M20911 8736 c-17 -20 -10 -67 11 -80 25 -15 72 4 76 31 5 36 -15 63
-47 63 -16 0 -34 -6 -40 -14z"/>
<path d="M21510 8611 c-5 -11 -10 -38 -10 -61 0 -73 36 -103 73 -62 24 26 23
104 -1 125 -25 22 -49 21 -62 -2z"/>
<path d="M21212 8238 c-16 -16 -15 -63 2 -77 20 -17 67 -10 80 11 18 29 -4 72
-39 76 -17 2 -36 -3 -43 -10z"/>
<path d="M21516 8128 c-20 -28 -20 -88 -2 -132 33 -79 134 -153 197 -144 89
12 41 200 -70 275 -45 31 -104 31 -125 1z"/>
<path d="M20912 8038 c-16 -16 -15 -63 2 -77 8 -7 27 -11 43 -9 33 4 54 48 37
76 -13 21 -65 27 -82 10z"/>
<path d="M21116 7933 c-10 -11 43 -99 85 -141 32 -32 49 -42 68 -40 35 4 40
44 10 82 -33 43 -149 113 -163 99z"/>
<path d="M21612 7638 c-7 -7 -12 -24 -12 -38 0 -33 17 -50 50 -50 33 0 50 17
50 50 0 33 -17 50 -50 50 -14 0 -31 -5 -38 -12z"/>
<path d="M21112 7238 c-7 -7 -12 -24 -12 -38 0 -33 17 -50 50 -50 33 0 50 17
50 50 0 33 -17 50 -50 50 -14 0 -31 -5 -38 -12z"/>
<path d="M21910 7211 c-5 -11 -10 -38 -10 -61 0 -73 36 -103 73 -62 24 26 23
104 -1 125 -25 22 -49 21 -62 -2z"/>
<path d="M21311 7136 c-17 -20 -10 -67 11 -80 25 -15 72 4 76 31 5 36 -15 63
-47 63 -16 0 -34 -6 -40 -14z"/>
<path d="M21512 6938 c-7 -7 -12 -24 -12 -38 0 -33 17 -50 50 -50 33 0 50 17
50 50 0 33 -17 50 -50 50 -14 0 -31 -5 -38 -12z"/>
<path d="M21534 6682 c35 -69 102 -134 135 -130 37 4 40 46 7 86 -33 39 -116
92 -145 92 l-21 0 24 -48z"/>
<path d="M21225 6640 c-17 -27 63 -94 182 -154 84 -42 102 -33 62 34 -34 56
-61 81 -114 106 -52 25 -119 32 -130 14z"/>
<path d="M21530 5428 c0 -18 27 -42 107 -97 100 -70 132 -134 102 -207 -15
-39 -7 -62 26 -70 64 -16 175 43 175 93 0 90 -232 276 -364 290 -36 4 -46 2
-46 -9z"/>
<path d="M21237 5222 c-37 -41 -10 -72 63 -72 54 0 80 15 80 45 0 31 -26 45
-83 45 -30 0 -49 -6 -60 -18z"/>
<path d="M21423 4924 c-15 -24 -18 -49 -18 -154 0 -106 3 -129 19 -153 43 -63
126 -4 126 90 0 55 -52 192 -84 222 l-24 23 -19 -28z"/>
<path d="M21936 4924 c-39 -38 -8 -74 64 -74 51 0 80 15 80 40 0 32 -28 50
-80 50 -31 0 -54 -6 -64 -16z"/>
<path d="M21112 4638 c-7 -7 -12 -24 -12 -38 0 -33 17 -50 50 -50 33 0 50 17
50 50 0 33 -17 50 -50 50 -14 0 -31 -5 -38 -12z"/>
<path d="M23712 4638 c-7 -7 -12 -24 -12 -38 0 -33 17 -50 50 -50 33 0 50 17
50 50 0 33 -17 50 -50 50 -14 0 -31 -5 -38 -12z"/>
<path d="M22012 4538 c-7 -7 -12 -24 -12 -38 0 -33 17 -50 50 -50 33 0 50 17
50 50 0 33 -17 50 -50 50 -14 0 -31 -5 -38 -12z"/>
<path d="M21512 4438 c-7 -7 -12 -24 -12 -38 0 -33 17 -50 50 -50 33 0 50 17
50 50 0 33 -17 50 -50 50 -14 0 -31 -5 -38 -12z"/>
<path d="M22912 4438 c-16 -16 -15 -63 2 -77 8 -7 27 -11 43 -9 33 4 54 48 37
76 -13 21 -65 27 -82 10z"/>
<path d="M22012 4338 c-7 -7 -12 -24 -12 -38 0 -33 17 -50 50 -50 33 0 50 17
50 50 0 33 -17 50 -50 50 -14 0 -31 -5 -38 -12z"/>
<path d="M24612 4338 c-7 -7 -12 -24 -12 -38 0 -33 17 -50 50 -50 33 0 50 17
50 50 0 33 -17 50 -50 50 -14 0 -31 -5 -38 -12z"/>
<path d="M26112 13338 c-7 -7 -12 -24 -12 -38 0 -14 5 -31 12 -38 7 -7 24 -12
38 -12 14 0 31 5 38 12 7 7 12 24 12 38 0 14 -5 31 -12 38 -7 7 -24 12 -38 12
-14 0 -31 -5 -38 -12z"/>
<path d="M26111 12336 c-17 -20 -10 -67 11 -80 25 -15 72 4 76 31 5 36 -15 63
-47 63 -16 0 -34 -6 -40 -14z"/>
<path d="M26412 12238 c-7 -7 -12 -24 -12 -38 0 -14 5 -31 12 -38 7 -7 24 -12
38 -12 14 0 31 5 38 12 7 7 12 24 12 38 0 14 -5 31 -12 38 -7 7 -24 12 -38 12
-14 0 -31 -5 -38 -12z"/>
<path d="M27012 12238 c-7 -7 -12 -24 -12 -38 0 -14 5 -31 12 -38 7 -7 24 -12
38 -12 14 0 31 5 38 12 7 7 12 24 12 38 0 14 -5 31 -12 38 -7 7 -24 12 -38 12
-14 0 -31 -5 -38 -12z"/>
<path d="M26812 12038 c-7 -7 -12 -24 -12 -38 0 -14 5 -31 12 -38 7 -7 24 -12
38 -12 14 0 31 5 38 12 7 7 12 24 12 38 0 14 -5 31 -12 38 -7 7 -24 12 -38 12
-14 0 -31 -5 -38 -12z"/>
<path d="M26412 11938 c-7 -7 -12 -24 -12 -38 0 -14 5 -31 12 -38 7 -7 24 -12
38 -12 14 0 31 5 38 12 7 7 12 24 12 38 0 14 -5 31 -12 38 -7 7 -24 12 -38 12
-14 0 -31 -5 -38 -12z"/>
<path d="M27012 11838 c-7 -7 -12 -24 -12 -38 0 -14 5 -31 12 -38 7 -7 24 -12
38 -12 14 0 31 5 38 12 7 7 12 24 12 38 0 14 -5 31 -12 38 -7 7 -24 12 -38 12
-14 0 -31 -5 -38 -12z"/>
<path d="M26412 11738 c-16 -16 -15 -63 2 -77 8 -7 27 -11 43 -9 33 4 54 48
37 76 -13 21 -65 27 -82 10z"/>
<path d="M26712 11338 c-7 -7 -12 -24 -12 -38 0 -14 5 -31 12 -38 7 -7 24 -12
38 -12 14 0 31 5 38 12 7 7 12 24 12 38 0 14 -5 31 -12 38 -7 7 -24 12 -38 12
-14 0 -31 -5 -38 -12z"/>
<path d="M26464 11240 c-12 -4 -31 -21 -43 -36 -43 -54 -16 -166 36 -150 31
10 78 61 98 106 17 37 17 41 1 65 -17 26 -51 32 -92 15z"/>
<path d="M26212 11138 c-7 -7 -12 -24 -12 -38 0 -14 5 -31 12 -38 7 -7 24 -12
38 -12 14 0 31 5 38 12 7 7 12 24 12 38 0 14 -5 31 -12 38 -7 7 -24 12 -38 12
-14 0 -31 -5 -38 -12z"/>
<path d="M25812 10838 c-7 -7 -12 -24 -12 -38 0 -14 5 -31 12 -38 7 -7 24 -12
38 -12 14 0 31 5 38 12 7 7 12 24 12 38 0 14 -5 31 -12 38 -7 7 -24 12 -38 12
-14 0 -31 -5 -38 -12z"/>
<path d="M26575 10843 c-28 -7 -55 -33 -55 -54 0 -25 30 -39 80 -39 50 0 80
14 80 39 0 35 -58 64 -105 54z"/>
<path d="M26210 10711 c-5 -11 -10 -38 -10 -61 0 -50 14 -80 39 -80 30 0 51
33 51 79 0 55 -15 81 -45 81 -14 0 -29 -8 -35 -19z"/>
<path d="M26910 10311 c-5 -11 -10 -38 -10 -61 0 -52 15 -80 42 -80 30 0 47
29 48 81 0 67 -54 108 -80 60z"/>
<path d="M26512 10138 c-7 -7 -12 -24 -12 -38 0 -33 17 -50 50 -50 33 0 50 17
50 50 0 33 -17 50 -50 50 -14 0 -31 -5 -38 -12z"/>
<path d="M26312 10038 c-7 -7 -12 -24 -12 -38 0 -33 17 -50 50 -50 33 0 50 17
50 50 0 33 -17 50 -50 50 -14 0 -31 -5 -38 -12z"/>
<path d="M26412 9238 c-7 -7 -12 -24 -12 -38 0 -33 17 -50 50 -50 33 0 50 17
50 50 0 33 -17 50 -50 50 -14 0 -31 -5 -38 -12z"/>
<path d="M27012 9138 c-7 -7 -12 -24 -12 -38 0 -33 17 -50 50 -50 33 0 50 17
50 50 0 33 -17 50 -50 50 -14 0 -31 -5 -38 -12z"/>
<path d="M25812 8838 c-7 -7 -12 -24 -12 -38 0 -33 17 -50 50 -50 33 0 50 17
50 50 0 33 -17 50 -50 50 -14 0 -31 -5 -38 -12z"/>
<path d="M26012 8738 c-7 -7 -12 -24 -12 -38 0 -33 17 -50 50 -50 33 0 50 17
50 50 0 33 -17 50 -50 50 -14 0 -31 -5 -38 -12z"/>
<path d="M26312 8338 c-7 -7 -12 -24 -12 -38 0 -33 17 -50 50 -50 33 0 50 17
50 50 0 33 -17 50 -50 50 -14 0 -31 -5 -38 -12z"/>
<path d="M26712 6938 c-7 -7 -12 -24 -12 -38 0 -33 17 -50 50 -50 33 0 50 17
50 50 0 33 -17 50 -50 50 -14 0 -31 -5 -38 -12z"/>
<path d="M26412 5538 c-7 -7 -12 -24 -12 -38 0 -33 17 -50 50 -50 33 0 50 17
50 50 0 33 -17 50 -50 50 -14 0 -31 -5 -38 -12z"/>
</g>
</svg>
